<?xml version="1.0" encoding="utf-8"?>
<!-- Svg Vector Icons : http://www.sfont.cn -->
<!DOCTYPE svg PUBLIC "-//W3C//DTD SVG 1.1//EN" "http://www.w3.org/Graphics/SVG/1.1/DTD/svg11.dtd">
<svg version="1.1" xmlns="http://www.w3.org/2000/svg" xmlns:xlink="http://www.w3.org/1999/xlink" x="0px" y="0px" viewBox="0 0 1000 1000" enable-background="new 0 0 1000 1000" xml:space="preserve">
<metadata> Svg Vector Icons : http://www.sfont.cn </metadata>
<g><path d="M894.3,990H105.7C53,990,10,947.1,10,894.3V105.7C10,53,53,10,105.7,10h788.5c52.8,0,95.7,43,95.7,95.7v788.5C990,947.1,947.1,990,894.3,990z M105.7,75.3C89,75.3,75.3,89,75.3,105.7v788.5c0,16.8,13.6,30.4,30.4,30.4h788.5c16.8,0,30.4-13.7,30.4-30.4V105.7c0-16.8-13.7-30.4-30.4-30.4H105.7z"/></g>
</svg>