<?xml version="1.0" encoding="utf-8"?>
<!-- Svg Vector Icons : http://www.sfont.cn -->
<!DOCTYPE svg PUBLIC "-//W3C//DTD SVG 1.1//EN" "http://www.w3.org/Graphics/SVG/1.1/DTD/svg11.dtd">
<svg version="1.1" xmlns="http://www.w3.org/2000/svg" xmlns:xlink="http://www.w3.org/1999/xlink" x="0px" y="0px" viewBox="0 0 1000 1000" enable-background="new 0 0 1000 1000" xml:space="preserve">
<metadata> Svg Vector Icons : http://www.sfont.cn </metadata>
<g><g><path d="M815,80H535c0,0,0-26.3,0-35c0-19.3-15.7-35-35-35c-19.3,0-35,15.7-35,35c0,19.3,0,35,0,35H185c-38.7,0-70,31.3-70,70v70c0,38.7,31.3,70,70,70v630c0,38.7,31.3,70,70,70h490c38.7,0,70-31.3,70-70V290c38.7,0,70-31.3,70-70v-70C885,111.3,853.7,80,815,80z M745,885c0,19.3-15.7,35-35,35H290c-19.3,0-35-15.7-35-35V290h70v525c0,19.3,15.7,35,35,35c19.3,0,35-15.7,35-35l0.4-525H465v525c0,19.3,15.7,35,35,35c19.3,0,35-15.7,35-35l0.4-525h70L605,815c0,19.3,15.7,35,35,35s35-15.7,35-35V290h70V885z M815,202.5c0,9.7-7.8,17.5-17.5,17.5h-595c-9.7,0-17.5-7.8-17.5-17.5v-35c0-9.7,7.8-17.5,17.5-17.5h595c9.7,0,17.5,7.8,17.5,17.5V202.5z"/></g></g>
</svg>